<svg width="2281" height="317" viewBox="0 0 2281 317" fill="none" xmlns="http://www.w3.org/2000/svg">
<path d="M109.095 308.409H0V296.382H14.6033C23.1934 296.382 28.7771 294.664 31.3541 291.228C33.9312 287.792 35.2197 282.923 35.2197 276.624V39.5178C35.2197 33.2179 33.9312 28.3498 31.3541 24.9135C28.7771 21.4772 23.1934 19.759 14.6033 19.759H0V7.73192H109.095V19.759H92.7738C84.1836 19.759 78.6 21.4772 76.023 24.9135C73.4459 28.3498 72.1574 33.2179 72.1574 39.5178V276.624C72.1574 282.923 73.4459 287.792 76.023 291.228C78.6 294.664 84.1836 296.382 92.7738 296.382H109.095V308.409Z" fill="#0D1034"/>
<path d="M389.128 315.282L199.285 60.9948V276.624C199.285 289.223 208.162 295.523 225.915 295.523H242.236V308.409H139.154V295.523H152.898C170.651 295.523 179.528 289.223 179.528 276.624V39.5178C179.528 26.918 170.651 20.6181 152.898 20.6181H139.154V7.73192H207.016L383.974 245.697V39.5178C383.974 26.918 375.384 20.6181 358.203 20.6181H343.6V7.73192H446.682V20.6181H430.361C412.608 20.6181 403.731 26.918 403.731 39.5178V306.691C400.581 306.691 397.145 307.98 393.423 310.557C389.987 313.421 388.555 314.996 389.128 315.282Z" fill="#0D1034"/>
<path d="M549.7 36.0815V269.751C566.308 279.487 588.929 284.355 617.562 284.355C651.637 284.355 681.702 275.049 707.759 256.435C720.931 246.985 731.382 233.813 739.113 216.918C746.844 200.022 750.71 180.979 750.71 159.789C750.71 138.312 746.415 119.269 737.825 102.66C729.521 86.0513 718.64 72.7355 705.182 62.7129C677.98 42.0951 649.919 31.7861 620.998 31.7861L549.7 36.0815ZM543.687 7.73192L650.205 3.43652C690.006 3.43652 721.36 16.3227 744.267 42.0951C767.461 67.8674 779.057 102.374 779.057 145.614C779.057 188.568 762.45 226.511 729.235 259.442C696.306 292.087 657.65 308.409 613.267 308.409H477.543V295.523H492.146C500.736 295.523 506.32 293.948 508.897 290.798C511.474 287.648 512.762 282.923 512.762 276.624V39.5178C512.762 32.9315 511.331 28.2066 508.467 25.343C505.89 22.1931 500.45 20.6181 492.146 20.6181H477.543V7.73192H543.687Z" fill="#0D1034"/>
<path d="M916.638 308.409H807.543V296.382H822.146C830.736 296.382 836.32 294.664 838.897 291.228C841.474 287.792 842.762 282.923 842.762 276.624V39.5178C842.762 33.2179 841.474 28.3498 838.897 24.9135C836.32 21.4772 830.736 19.759 822.146 19.759H807.543V7.73192H916.638V19.759H900.316C891.726 19.759 886.143 21.4772 883.566 24.9135C880.989 28.3498 879.7 33.2179 879.7 39.5178V276.624C879.7 282.923 880.989 287.792 883.566 291.228C886.143 294.664 891.726 296.382 900.316 296.382H916.638V308.409Z" fill="#0D1034"/>
<path d="M1176.91 308.409H946.697V296.382H961.3C969.604 296.382 975.044 294.807 977.621 291.657C980.485 288.507 981.916 283.496 981.916 276.624V39.5178C981.916 33.7906 980.055 29.0657 976.333 25.343C972.897 21.6204 967.886 19.759 961.3 19.759H946.697V7.73192H1173.48L1176.91 67.0083L1164.89 69.5856C1164.89 59.2766 1160.73 49.3972 1152.43 39.9474C1144.13 30.4975 1132.53 25.7726 1117.64 25.7726H1039.47C1030.88 25.7726 1025.3 27.4907 1022.72 30.927C1020.14 34.077 1018.85 38.6587 1018.85 44.6723V142.607H1104.76C1109.05 142.607 1112.34 142.464 1114.63 142.178C1116.93 141.605 1118.93 140.03 1120.65 137.453C1122.65 134.876 1123.65 131.153 1123.65 126.285V106.526H1136.54V195.87H1123.65V177.829C1123.65 170.67 1122.08 166.089 1118.93 164.084C1115.78 161.793 1111.06 160.648 1104.76 160.648H1018.85V271.469C1018.85 277.483 1020.14 282.208 1022.72 285.644C1025.3 288.794 1030.88 290.369 1039.47 290.369H1121.08C1136.25 290.369 1149.57 285.501 1161.02 275.764C1172.76 266.028 1178.92 256.578 1179.49 247.415L1191.52 249.133L1176.91 308.409Z" fill="#0D1034"/>
<path d="M1443.16 36.0813V269.751C1459.77 279.487 1482.39 284.355 1511.02 284.355C1545.09 284.355 1575.16 275.048 1601.22 256.435C1614.39 246.985 1624.84 233.813 1632.57 216.917C1640.3 200.022 1644.17 180.979 1644.17 159.789C1644.17 138.312 1639.87 119.269 1631.28 102.66C1622.98 86.0511 1612.1 72.7353 1598.64 62.7127C1571.44 42.0948 1543.38 31.7859 1514.46 31.7859L1443.16 36.0813ZM1437.14 7.73171L1543.66 3.43632C1583.46 3.43632 1614.82 16.3225 1637.72 42.0949C1660.92 67.8672 1672.51 102.374 1672.51 145.614C1672.51 188.568 1655.91 226.51 1622.69 259.442C1589.76 292.087 1551.11 308.409 1506.72 308.409H1371V295.523H1385.6C1394.19 295.523 1399.78 293.948 1402.35 290.798C1404.93 287.648 1406.22 282.923 1406.22 276.623V39.5176C1406.22 32.9313 1404.79 28.2064 1401.92 25.3428C1399.35 22.1929 1393.91 20.6179 1385.6 20.6179H1371V7.73171H1437.14Z" fill="#0D1034"/>
<path d="M1976.3 308.409H1866.34V296.382H1880.09C1892.69 296.382 1898.99 292.373 1898.99 284.355C1898.99 283.21 1897.55 278.341 1894.69 269.751L1865.48 193.293H1757.25L1728.9 266.314C1728.9 266.887 1727.9 270.467 1725.89 277.053C1723.89 283.353 1722.89 287.791 1722.89 290.369C1722.89 292.659 1724.46 294.234 1727.61 295.094C1730.76 295.953 1737.49 296.382 1747.8 296.382H1754.67V308.409H1670.49V296.382H1676.5C1685.95 296.382 1692.82 294.807 1697.12 291.657C1701.41 288.221 1705.14 282.637 1708.28 274.905L1802.78 28.3496C1804.21 28.0632 1806.79 26.0587 1810.51 22.3361C1814.23 18.327 1817.67 14.318 1820.82 10.309C1823.97 6.01355 1825.54 3.5795 1825.54 3.00679C1825.54 2.43406 1825.4 2.00451 1825.11 1.71816L1831.12 0L1936.78 276.623C1939.93 283.21 1943.08 288.221 1946.23 291.657C1949.67 294.807 1954.54 296.382 1960.84 296.382H1976.3V308.409ZM1857.75 175.252L1811.37 52.4038L1764.12 175.252H1857.75Z" fill="#0D1034"/>
<path d="M2114.99 317C2077.48 317 2046.13 302.539 2020.93 273.617C1996.02 244.694 1983.56 211.333 1983.56 173.534C1983.56 150.052 1988.72 127.43 1999.03 105.667C2009.33 83.9033 2022.5 65.4332 2038.54 50.2561C2054.86 35.079 2072.76 22.9088 2092.23 13.7453C2111.99 4.58175 2131.03 0 2149.35 0C2186.58 0 2217.79 14.4612 2242.99 43.3835C2268.18 72.3058 2280.78 105.667 2280.78 143.466C2280.78 171.529 2273.19 199.02 2258.02 225.938C2242.84 252.569 2222.23 274.476 2196.17 291.657C2170.4 308.552 2143.34 317 2114.99 317ZM2141.62 284.355C2172.83 284.355 2199.03 272.901 2220.22 249.992C2241.7 227.083 2252.43 198.734 2252.43 164.943C2252.43 131.153 2239.98 100.799 2215.07 73.8808C2190.44 46.963 2160.52 33.5041 2125.3 33.5041C2095.23 33.5041 2068.75 44.3857 2045.84 66.1491C2023.22 87.626 2011.91 113.398 2011.91 143.466C2011.91 182.411 2023.79 215.629 2047.56 243.119C2071.61 270.61 2102.97 284.355 2141.62 284.355Z" fill="#0D1034"/>
<path d="M1281 78V78C1282.76 121.434 1317.56 156.242 1361 157.999V157.999V157.999C1317.56 159.756 1282.76 194.564 1281 237.998V237.998V237.998C1279.24 194.564 1244.43 159.756 1201 157.999V157.999V157.999C1244.43 156.242 1279.24 121.434 1281 78V78Z" fill="#0D1034"/>
</svg>
